<svg fill="none" height="60" viewBox="0 0 60 60" width="60" xmlns="http://www.w3.org/2000/svg" xmlns:xlink="http://www.w3.org/1999/xlink"><linearGradient id="paint0_linear_873_227" gradientUnits="userSpaceOnUse" x1="30.06" x2="30.06" y1="5.001" y2="54.999"><stop offset="0" stop-color="#0983f3"/><stop offset="1" stop-color="#125695"/></linearGradient><g clip-rule="evenodd" fill="url(#paint0_linear_873_227)" fill-rule="evenodd"><path d="m32.4548 5.11629c1.6044-.26287 3.2504-.07352 4.7532.54678s2.803 1.64705 3.755 2.96505c.952 1.31802 1.5178 2.87518 1.6343 4.49678.1162 1.6217-.2215 3.2436-.9755 4.6841-.754 1.4404-1.8943 2.6422-3.2933 3.4708-1.3913.8241-2.9837 1.2464-4.6005 1.2202h-21.228c-1.3807 0-2.5-1.1193-2.5-2.5s1.1193-2.5 2.5-2.5h21.25l.0478.0005c.6967.0133 1.3832-.1677 1.9827-.5228s1.0882-.8702 1.4115-1.4875c.323-.6173.4678-1.3124.418-2.0074-.05-.695-.2925-1.3624-.7005-1.9272-.4077-.5649-.965-1.0049-1.6092-1.2708-.6441-.2658-1.3495-.34696-2.037-.2343-.6875.1127-1.3303.4147-1.8558.8721-.5255.4575-.9133 1.0524-1.1197 1.7179-.4088 1.3187-1.8095 2.0563-3.1283 1.6473-1.3188-.4089-2.0563-1.8095-1.6473-3.1282.4815-1.55291 1.3861-2.94088 2.6126-4.00833 1.2262-1.06745 2.7257-1.7721 4.33-2.03498z"/><path d="m48.2805 33.0223c-.5995-.355-1.286-.536-1.9827-.5228l-.0478.0005h-38.75c-1.3807 0-2.5-1.1192-2.5-2.5 0-1.3807 1.1193-2.5 2.5-2.5h38.728c1.6167-.0262 3.2092.3963 4.6005 1.2203 1.399.8285 2.5392 2.0305 3.2932 3.4707.7541 1.4405 1.0918 3.0625.9756 4.684-.1165 1.6218-.6823 3.179-1.6343 4.497s-2.2522 2.3448-3.755 2.965c-1.5028.6203-3.1488.8095-4.7532.5468-1.6043-.263-3.1038-.9675-4.33-2.035-1.2265-1.0675-2.1311-2.4555-2.6126-4.0083-.409-1.3187.3286-2.7195 1.6473-3.1282 1.3187-.409 2.7195.3285 3.1283 1.6472.2065.6655.5942 1.2605 1.1197 1.718.5255.4573 1.1682.7593 1.8557.872.6875.1128 1.393.0315 2.0371-.2342.6442-.266 1.2015-.706 1.6092-1.2708.408-.565.6505-1.2322.7005-1.9272.0498-.695-.095-1.3903-.418-2.0075-.3232-.6173-.812-1.1323-1.4115-1.4875z"/><path d="m25.7805 43.0223c-.5995-.355-1.286-.536-1.9827-.5228l-.0478.0005h-13.75c-1.3807 0-2.5-1.1192-2.5-2.5 0-1.3807 1.1193-2.5 2.5-2.5h13.7281c1.6166-.0262 3.2091.3963 4.6004 1.2203 1.399.8285 2.5393 2.0305 3.2932 3.4707.754 1.4405 1.0918 3.0625.9755 4.684-.1165 1.6218-.6822 3.179-1.6342 4.497s-2.2523 2.3448-3.755 2.965c-1.5028.6203-3.1487.8095-4.7531.5468-1.6045-.263-3.1039-.9675-4.3302-2.035s-2.131-2.4555-2.6125-4.0083c-.409-1.3187.3286-2.7195 1.6473-3.1282 1.3188-.409 2.7194.3285 3.1283 1.6472.2064.6655.5941 1.2605 1.1197 1.718.5255.4573 1.1681.7593 1.8557.872.6877.1128 1.393.0315 2.037-.2342.6443-.266 1.2015-.706 1.6093-1.2708.408-.565.6505-1.2322.7005-1.9272.0497-.695-.095-1.3903-.418-2.0075-.3233-.6173-.812-1.1323-1.4115-1.4875z"/></g></svg>
