<svg fill="none" height="512" viewBox="0 0 24 24" width="512" xmlns="http://www.w3.org/2000/svg"><path clip-rule="evenodd" d="m5.96802 2h12.06398c.4386-.00001.8171-.00002 1.1304.02135.3298.02251.6597.07201.9857.20701.735.30448 1.3191.88851 1.6235 1.62359.135.32593.1845.65584.2071.98567.0213.31326.0213.69174.0213 1.13039v.06398c0 .43865 0 .81714-.0213 1.13039-.0226.32983-.0721.65974-.2071.98567-.3044.73509-.8885 1.31911-1.6235 1.62359-.326.135-.6559.18451-.9857.20701-.3133.02135-.6918.02135-1.1304.02135h-11.032v4.8c0 .5766.00078.9488.02393 1.2322.02219.2716.05987.3723.08506.4218.09588.1882.24886.3411.43702.437.04945.0252.15016.0629.42183.0851.28333.0231.65561.0239 1.23216.0239h.8123c.0025-.0559.0055-.1101.0091-.1624.0225-.3298.072-.6597.207-.9856.3044-.7351.8885-1.3192 1.6236-1.6236.3259-.135.6558-.1845.9856-.207.3133-.0214.6918-.0214 1.1304-.0214h4.064c.4386 0 .8171 0 1.1304.0214.3298.0225.6597.072.9857.207.735.3044 1.3191.8885 1.6235 1.6236.135.3259.1845.6558.2071.9856.0213.3133.0213.6918.0213 1.1304v.064c0 .4386 0 .8171-.0213 1.1304-.0226.3298-.0721.6597-.2071.9857-.3044.735-.8885 1.3191-1.6235 1.6235-.326.135-.6559.1845-.9857.2071-.3133.0213-.6918.0213-1.1304.0213h-4.064c-.4386 0-.8171 0-1.1304-.0213-.3298-.0226-.6597-.0721-.9856-.2071-.7351-.3044-1.3192-.8885-1.6236-1.6235-.135-.326-.1845-.6559-.207-.9857-.0036-.0523-.0066-.1065-.0091-.1624h-.85087c-.52713 0-.98189 0-1.35646-.0306-.39534-.0323-.78856-.1036-1.16694-.2964-.56449-.2876-1.02343-.7465-1.31105-1.311-.19279-.3784-.26411-.7716-.29641-1.167-.0306-.3745-.03059-.8293-.03057-1.3565v-4.85083c-.05593-.00248-.11006-.00545-.16238-.00902-.32983-.0225-.65974-.07201-.98567-.20701-.73508-.30448-1.31911-.8885-1.62359-1.62359-.135-.32593-.1845-.65584-.20701-.98567-.02137-.31325-.02136-.69174-.02135-1.1304v-.06396c-.00001-.43865-.00002-.81714.02135-1.1304.02251-.32983.07201-.65974.20701-.98567.30448-.73508.88851-1.31911 1.62359-1.62359.32593-.135.65584-.1845.98567-.20701.31326-.02137.69175-.02136 1.1304-.02135zm-.99426 2.01671c-.228.01556-.31483.04217-.35644.05941-.24503.1015-.4397.29617-.5412.5412-.01724.04161-.04385.12844-.05941.35644-.01617.23698-.01671.54662-.01671 1.02624 0 .47963.00054.78926.01671 1.02624.01556.228.04217.31483.05941.35645.1015.24502.29617.4397.5412.54119.04161.01724.12844.04385.35644.05941.23698.01617.54662.01671 1.02624.01671h12c.4796 0 .7893-.00054 1.0262-.01671.228-.01556.3149-.04217.3565-.05941.245-.10149.4397-.29617.5412-.54119.0172-.04162.0438-.12845.0594-.35645.0162-.23698.0167-.54661.0167-1.02624 0-.47962-.0005-.78926-.0167-1.02624-.0156-.228-.0422-.31483-.0594-.35644-.1015-.24503-.2962-.4397-.5412-.5412-.0416-.01724-.1285-.04385-.3565-.05941-.2369-.01617-.5466-.01671-1.0262-.01671h-12c-.47962 0-.78926.00054-1.02624.01671zm8.00004 11.99999c-.228.0156-.3149.0422-.3565.0594-.245.1015-.4397.2962-.5412.5412-.0172.0416-.0438.1285-.0594.3565-.0162.2369-.0167.5466-.0167 1.0262s.0005.7893.0167 1.0262c.0156.228.0422.3149.0594.3565.1015.245.2962.4397.5412.5412.0416.0172.1285.0438.3565.0594.2369.0162.5466.0167 1.0262.0167h4c.4796 0 .7893-.0005 1.0262-.0167.228-.0156.3149-.0422.3565-.0594.245-.1015.4397-.2962.5412-.5412.0172-.0416.0438-.1285.0594-.3565.0162-.2369.0167-.5466.0167-1.0262s-.0005-.7893-.0167-1.0262c-.0156-.228-.0422-.3149-.0594-.3565-.1015-.245-.2962-.4397-.5412-.5412-.0416-.0172-.1285-.0438-.3565-.0594-.2369-.0162-.5466-.0167-1.0262-.0167h-4c-.4796 0-.7893.0005-1.0262.0167z" fill="#ffffff" fill-rule="evenodd"/></svg>